<svg width="21" height="20" viewBox="0 0 21 20" fill="none" xmlns="http://www.w3.org/2000/svg">
<path d="M7.44542 1.36334H12.87L7.23875 18.0481C7.18088 18.2196 7.07069 18.3686 6.9237 18.4741C6.77671 18.5796 6.60033 18.6364 6.41938 18.6365H2.19771C2.06061 18.6365 1.92547 18.6039 1.80348 18.5413C1.68149 18.4787 1.57615 18.388 1.49618 18.2766C1.41621 18.1652 1.36391 18.0364 1.3436 17.9009C1.32329 17.7653 1.33555 17.6268 1.37938 17.4969L6.62584 1.95167C6.68369 1.78015 6.79389 1.6311 6.94092 1.52552C7.08795 1.41994 7.26441 1.36335 7.44542 1.36334Z" fill="url(#paint0_linear_2_13276)"/>
<path d="M15.3281 12.5544H6.72603C6.64606 12.5543 6.56792 12.5783 6.50178 12.6233C6.43564 12.6682 6.38457 12.732 6.35523 12.8064C6.32589 12.8808 6.31964 12.9623 6.33728 13.0404C6.35493 13.1184 6.39565 13.1892 6.45416 13.2438L11.9817 18.4029C12.1426 18.553 12.3545 18.6365 12.5746 18.6365H17.4454L15.3281 12.5544Z" fill="#0078D4"/>
<path d="M7.44541 1.36335C7.26242 1.36265 7.084 1.42047 6.93621 1.52838C6.78843 1.63629 6.67901 1.78863 6.62396 1.96314L1.38583 17.4827C1.33906 17.6131 1.32437 17.7528 1.34302 17.8901C1.36167 18.0273 1.4131 18.1581 1.49296 18.2713C1.57283 18.3844 1.67877 18.4767 1.80184 18.5403C1.92491 18.6039 2.06148 18.6368 2.2 18.6365H6.53062C6.69191 18.6077 6.84267 18.5365 6.96748 18.4304C7.09229 18.3242 7.18669 18.1869 7.24104 18.0323L8.28562 14.9538L12.0169 18.434C12.1732 18.5633 12.3694 18.6348 12.5723 18.6365H17.425L15.2967 12.5544L9.09229 12.5558L12.8896 1.36335H7.44541Z" fill="url(#paint1_linear_2_13276)"/>
<path d="M14.374 1.95084C14.3162 1.7796 14.2062 1.6308 14.0593 1.5254C13.9125 1.42 13.7364 1.36332 13.5556 1.36334H7.51001C7.69073 1.36335 7.86689 1.42005 8.01369 1.52544C8.1605 1.63083 8.27055 1.77962 8.32834 1.95084L13.575 17.4967C13.6189 17.6266 13.6312 17.7651 13.6109 17.9007C13.5906 18.0364 13.5383 18.1652 13.4583 18.2766C13.3783 18.388 13.273 18.4788 13.151 18.5414C13.029 18.604 12.8938 18.6367 12.7567 18.6367H18.8025C18.9396 18.6366 19.0748 18.604 19.1967 18.5413C19.3187 18.4787 19.424 18.3879 19.504 18.2765C19.5839 18.1651 19.6362 18.0363 19.6565 17.9007C19.6768 17.7651 19.6645 17.6266 19.6206 17.4967L14.374 1.95084Z" fill="url(#paint2_linear_2_13276)"/>
<defs>
<linearGradient id="paint0_linear_2_13276" x1="9.4225" y1="2.64334" x2="3.78896" y2="19.2863" gradientUnits="userSpaceOnUse">
<stop stop-color="#114A8B"/>
<stop offset="1" stop-color="#0669BC"/>
</linearGradient>
<linearGradient id="paint1_linear_2_13276" x1="11.1823" y1="10.3994" x2="9.87916" y2="10.84" gradientUnits="userSpaceOnUse">
<stop stop-opacity="0.3"/>
<stop offset="0.071" stop-opacity="0.2"/>
<stop offset="0.321" stop-opacity="0.1"/>
<stop offset="0.623" stop-opacity="0.05"/>
<stop offset="1" stop-opacity="0"/>
</linearGradient>
<linearGradient id="paint2_linear_2_13276" x1="10.4656" y1="2.15793" x2="16.6496" y2="18.6331" gradientUnits="userSpaceOnUse">
<stop stop-color="#3CCBF4"/>
<stop offset="1" stop-color="#2892DF"/>
</linearGradient>
</defs>
</svg>
