<svg width="117" height="32" viewBox="0 0 117 32" fill="none" xmlns="http://www.w3.org/2000/svg">
<rect width="32" height="32" rx="4" fill="#F97316"/>
<path d="M23 7H9C7.89543 7 7 7.89543 7 9V23C7 24.1046 7.89543 25 9 25H23C24.1046 25 25 24.1046 25 23V9C25 7.89543 24.1046 7 23 7Z" stroke="white" stroke-width="2" stroke-linecap="round" stroke-linejoin="round"/>
<path d="M50.602 24.714L48.694 22.428C48.166 22.56 47.626 22.626 47.074 22.626C45.898 22.626 44.818 22.35 43.834 21.798C42.85 21.246 42.07 20.484 41.494 19.512C40.918 18.528 40.63 17.418 40.63 16.182C40.63 14.958 40.918 13.86 41.494 12.888C42.07 11.904 42.85 11.136 43.834 10.584C44.818 10.032 45.898 9.756 47.074 9.756C48.262 9.756 49.342 10.032 50.314 10.584C51.298 11.136 52.072 11.904 52.636 12.888C53.212 13.86 53.5 14.958 53.5 16.182C53.5 17.298 53.26 18.318 52.78 19.242C52.312 20.154 51.67 20.898 50.854 21.474L53.734 24.714H50.602ZM43.222 16.182C43.222 17.022 43.384 17.76 43.708 18.396C44.032 19.032 44.482 19.524 45.058 19.872C45.646 20.208 46.318 20.376 47.074 20.376C47.83 20.376 48.496 20.208 49.072 19.872C49.648 19.524 50.098 19.032 50.422 18.396C50.746 17.76 50.908 17.022 50.908 16.182C50.908 15.342 50.746 14.61 50.422 13.986C50.098 13.35 49.648 12.864 49.072 12.528C48.496 12.192 47.83 12.024 47.074 12.024C46.318 12.024 45.646 12.192 45.058 12.528C44.482 12.864 44.032 13.35 43.708 13.986C43.384 14.61 43.222 15.342 43.222 16.182ZM57.894 9.936V17.712C57.894 18.564 58.116 19.218 58.56 19.674C59.004 20.118 59.628 20.34 60.432 20.34C61.248 20.34 61.878 20.118 62.322 19.674C62.766 19.218 62.988 18.564 62.988 17.712V9.936H65.526V17.694C65.526 18.762 65.292 19.668 64.824 20.412C64.368 21.144 63.75 21.696 62.97 22.068C62.202 22.44 61.344 22.626 60.396 22.626C59.46 22.626 58.608 22.44 57.84 22.068C57.084 21.696 56.484 21.144 56.04 20.412C55.596 19.668 55.374 18.762 55.374 17.694V9.936H57.894ZM70.4808 9.936V22.5H67.9608V9.936H70.4808ZM72.3585 16.2C72.3585 14.964 72.6345 13.86 73.1865 12.888C73.7505 11.904 74.5125 11.142 75.4725 10.602C76.4445 10.05 77.5305 9.774 78.7305 9.774C80.1345 9.774 81.3645 10.134 82.4205 10.854C83.4765 11.574 84.2145 12.57 84.6345 13.842H81.7365C81.4485 13.242 81.0405 12.792 80.5125 12.492C79.9965 12.192 79.3965 12.042 78.7125 12.042C77.9805 12.042 77.3265 12.216 76.7505 12.564C76.1865 12.9 75.7425 13.38 75.4185 14.004C75.1065 14.628 74.9505 15.36 74.9505 16.2C74.9505 17.028 75.1065 17.76 75.4185 18.396C75.7425 19.02 76.1865 19.506 76.7505 19.854C77.3265 20.19 77.9805 20.358 78.7125 20.358C79.3965 20.358 79.9965 20.208 80.5125 19.908C81.0405 19.596 81.4485 19.14 81.7365 18.54H84.6345C84.2145 19.824 83.4765 20.826 82.4205 21.546C81.3765 22.254 80.1465 22.608 78.7305 22.608C77.5305 22.608 76.4445 22.338 75.4725 21.798C74.5125 21.246 73.7505 20.484 73.1865 19.512C72.6345 18.54 72.3585 17.436 72.3585 16.2ZM93.8789 22.5L89.3069 16.902V22.5H86.7869V9.936H89.3069V15.57L93.8789 9.936H96.9209L91.7369 16.164L97.0649 22.5H93.8789ZM101.242 11.97V15.12H105.472V17.118H101.242V20.448H106.012V22.5H98.7225V9.918H106.012V11.97H101.242ZM110.823 11.97V15.12H115.053V17.118H110.823V20.448H115.593V22.5H108.303V9.918H115.593V11.97H110.823Z" fill="#F97316"/>
</svg>
